<svg id="SvgjsSvg1001" width="288" height="288" xmlns="http://www.w3.org/2000/svg" version="1.1" xmlns:xlink="http://www.w3.org/1999/xlink" xmlns:svgjs="http://svgjs.com/svgjs"><defs id="SvgjsDefs1002"></defs><g id="SvgjsG1008"><svg xmlns="http://www.w3.org/2000/svg" viewBox="0 0 64 64" width="288" height="288"><path d="M16.2 35.57c-4.36 0-7.91 3.55-7.91 7.91s3.55 7.91 7.91 7.91 7.91-3.55 7.91-7.91-3.55-7.91-7.91-7.91zm0 13.82c-3.26 0-5.91-2.65-5.91-5.91s2.65-5.91 5.91-5.91 5.91 2.65 5.91 5.91-2.65 5.91-5.91 5.91zm-3.29-19.97h.05c.51-.03.92-.46.92-.97v-.05a.982.982 0 0 0-.97-.92h-.05c-.51.03-.92.46-.92.97v.05c.03.51.46.92.97.92zm.63-3.57c.51-.03.92-.46.92-.97v-.05a.981.981 0 0 0-1.03-.92c-.51.03-.92.46-.92.97v.05c.03.53.49.95 1.03.92zm.71-3.43c.51-.03.92-.46.92-.97v-.05a.979.979 0 0 0-1.02-.92c-.51.03-.92.46-.92.97v.05c.03.53.49.95 1.03.92zM47.8 35.57c-4.36 0-7.91 3.55-7.91 7.91s3.55 7.91 7.91 7.91 7.91-3.55 7.91-7.91-3.55-7.91-7.91-7.91zm0 13.82c-3.26 0-5.91-2.65-5.91-5.91s2.65-5.91 5.91-5.91 5.91 2.65 5.91 5.91-2.65 5.91-5.91 5.91z" fill="#ffffff" class="svgShape color000000-0 selectable"></path><path d="M54.47 19.03c-.59-2.85-1.75-4.65-3.73-5.64l-.09-1.67a3.595 3.595 0 0 0-3.78-3.41l-4.13.22a3.588 3.588 0 0 0-3.41 3.78l.11 2.12c-1.35 1.15-2.1 2.77-2.1 4.8v3.67H26.63v-3.67c0-2.02-.75-3.64-2.1-4.8l.11-2.12a3.593 3.593 0 0 0-3.41-3.78l-4.13-.22a3.607 3.607 0 0 0-3.78 3.41l-.09 1.67c-1.97.98-3.13 2.79-3.73 5.64L5.71 37.3c-1.08 1.82-1.74 3.92-1.74 6.18 0 6.73 5.47 12.2 12.2 12.2s12.2-5.47 12.2-12.2c0-1.8-.42-3.5-1.12-5.04h9.42c-.7 1.54-1.12 3.24-1.12 5.04 0 6.73 5.47 12.2 12.2 12.2s12.2-5.47 12.2-12.2c0-2.26-.66-4.36-1.74-6.18l-3.79-18.27Zm-13.13-6.82c-.02-.43.12-.84.41-1.16s.68-.5 1.11-.53l4.13-.22c.9-.06 1.64.63 1.68 1.51l.05.9c-.83-.17-1.74-.27-2.78-.27-1.76 0-3.27.3-4.53.82l-.06-1.07Zm-1.98 7.02c0-3.07 2.33-4.77 6.57-4.77s5.82 1.25 6.59 4.97l3.05 14.72c-2.12-1.76-4.8-2.87-7.77-2.87-3.28 0-6.24 1.31-8.44 3.42V19.23ZM26.65 32.15h10.71v4.29H26.65v-4.29Zm10.71-7.25v5.25H26.65V24.9h10.71ZM15.34 11.83c.05-.88.84-1.55 1.68-1.51l4.13.22c.43.02.82.21 1.11.53s.43.73.41 1.16l-.06 1.07c-1.26-.52-2.76-.82-4.53-.82-1.04 0-1.95.1-2.78.27l.05-.9Zm-3.85 7.6c.77-3.72 2.43-4.97 6.59-4.97s6.57 1.69 6.57 4.77V34.7c-2.19-2.11-5.16-3.42-8.44-3.42-2.97 0-5.65 1.11-7.77 2.87l3.05-14.72Zm4.72 34.25c-5.63 0-10.2-4.58-10.2-10.2s4.58-10.2 10.2-10.2 10.2 4.58 10.2 10.2-4.58 10.2-10.2 10.2Zm31.59 0c-5.63 0-10.2-4.58-10.2-10.2s4.58-10.2 10.2-10.2S58 37.86 58 43.48s-4.58 10.2-10.2 10.2Z" fill="#ffffff" class="svgShape color000000-1 selectable"></path><path d="M51.09 27.47c-.52 0-.95.41-.97.92-.03.53.39 1 .92 1.02h.05c.51 0 .94-.41.97-.92.03-.53-.39-1-.92-1.03h-.05zm-1.55-2.65c-.03.53.39 1 .92 1.03s1-.39 1.03-.92c.03-.53-.39-1-.92-1.02-.53-.03-1 .39-1.03.92zm.21-2.4c.53.03 1-.39 1.02-.92v-.05c0-.52-.41-.95-.92-.97-.53-.03-1 .39-1.03.92v.05c0 .51.41.95.92.97zM33.92 33.3h-3.85c-.55 0-1 .45-1 1s.45 1 1 1h3.85c.55 0 1-.45 1-1s-.45-1-1-1z" fill="#ffffff" class="svgShape color000000-2 selectable"></path></svg></g></svg>