<svg width="244" height="169" viewBox="0 0 244 169" fill="none" xmlns="http://www.w3.org/2000/svg">
<g clip-path="url(#clip0_87_1031)">
<path opacity="0.15" d="M190.996 32.8095C190.996 32.8095 184.091 -19.215 144.284 18.3055C93.254 66.4014 58.607 -28.8338 20.7607 10.1764C0.0845615 31.4875 55.002 78.8842 18.4787 103.999C-18.0446 129.113 11.9076 147.765 11.9076 147.765L219.681 147.221C219.681 147.221 241.195 148.692 242.75 121.926C244.303 95.1611 219.299 94.9023 234.727 61.3727C250.154 27.843 195.93 54.1125 190.996 32.8095Z" fill="url(#paint0_linear_87_1031)"/>
<path opacity="0.6" d="M118.178 61.1844C123.742 61.1698 128.241 56.7233 128.226 51.2527C128.211 45.7822 123.689 41.3592 118.125 41.3738C112.561 41.3884 108.063 45.8349 108.078 51.3055C108.092 56.776 112.615 61.199 118.178 61.1844Z" fill="url(#paint1_linear_87_1031)"/>
<path d="M118.142 47.8189C118.221 48.3949 118.274 48.9726 118.313 49.5486C118.337 49.8375 118.346 50.1246 118.363 50.4135C118.38 50.7024 118.384 50.9896 118.396 51.2785L118.321 51.1063C118.711 51.4587 119.093 51.8214 119.473 52.1825C119.849 52.5487 120.227 52.915 120.593 53.2917C120.779 53.4775 120.96 53.6667 121.139 53.8595C121.32 54.0504 121.5 54.2414 121.675 54.4376C122.031 54.8266 122.377 55.2225 122.705 55.6377C122.276 55.3255 121.863 54.9959 121.458 54.6575C121.254 54.491 121.054 54.3192 120.855 54.1456C120.655 53.9739 120.458 53.8003 120.262 53.6233C119.869 53.2745 119.487 52.9134 119.104 52.5542C118.726 52.1896 118.346 51.8251 117.978 51.4501L117.9 51.372L117.904 51.278C117.913 50.9891 117.916 50.7019 117.931 50.4129C117.946 50.1239 117.954 49.8367 117.977 49.5477C118.016 48.9715 118.066 48.3953 118.142 47.8189Z" fill="url(#paint2_linear_87_1031)"/>
<g opacity="0.45">
<rect width="33.8201" height="69.3375" transform="matrix(0.999997 -0.0026189 0.00270887 0.999996 177.152 49.0025)" fill="white"/>
<rect width="33.8201" height="69.3375" transform="matrix(0.999997 -0.0026189 0.00270887 0.999996 143.332 49.0911)" fill="white"/>
<rect width="31.6614" height="66.5074" transform="matrix(0.999997 -0.0026189 0.00270887 0.999996 144.773 50.5022)" fill="url(#paint3_linear_87_1031)"/>
<rect width="31.6614" height="66.5074" transform="matrix(0.999997 -0.0026189 0.00270887 0.999996 177.875 50.4155)" fill="url(#paint4_linear_87_1031)"/>
</g>
<g opacity="0.7">
<path d="M57.439 51.576L57.4504 55.8048L60.2604 66.6336L60.8772 69.0107L50.9651 69.0367L51.569 66.6564L54.3203 55.813L54.3088 51.5842L55.8739 51.5801L57.439 51.576Z" fill="url(#paint5_linear_87_1031)"/>
<path d="M51.569 66.6564L50.9651 69.0367L60.8772 69.0107L60.2604 66.6336M51.569 66.6564L54.3203 55.813L54.3088 51.5842L55.8739 51.5801M51.569 66.6564L60.2604 66.6336M60.2604 66.6336L57.4504 55.8048L57.439 51.576L55.8739 51.5801M55.8739 51.5801C55.6073 49.4664 55.959 44.4967 59.4985 41.5273" stroke="url(#paint6_linear_87_1031)" stroke-width="1.43915"/>
</g>
<g opacity="0.7">
<rect width="15.7604" height="13.4139" rx="1.22264" transform="matrix(0.999997 -0.0026189 0.00270887 0.999996 67.7969 55.8335)" fill="url(#paint7_linear_87_1031)"/>
<path d="M67.8086 59.6658L83.569 59.6245" stroke="white" stroke-width="0.539683"/>
<path d="M75.6739 55.8128C73.7821 55.6048 69.0503 54.2332 69.0399 50.4007C71.9332 50.6862 73.2346 51.2448 75.1438 54.7857C73.9175 52.1018 72.8808 47.449 75.958 44.3144C79.2458 47.8828 77.1386 53.4668 75.6739 55.8128C75.6839 55.8098 75.6938 55.8068 75.7038 55.8038C76 55.4298 78.4979 50.3559 83.2233 50.0442C83.2309 52.8436 78.2332 55.0436 75.7038 55.8038C75.6839 55.8289 75.674 55.8329 75.6739 55.8128Z" fill="url(#paint8_linear_87_1031)"/>
</g>
<rect opacity="0.45" width="41.7354" height="4.75736" transform="matrix(0.999997 -0.0026189 0.00270887 0.999996 45.7461 69.315)" fill="url(#paint9_linear_87_1031)"/>
<path d="M11.6484 147.449L209.633 146.93" stroke="#9CACCE" stroke-width="1.43915" stroke-miterlimit="10"/>
<path d="M216.562 146.912L241.031 146.848" stroke="#9CACCE" stroke-width="1.43915" stroke-miterlimit="10"/>
</g>
<g filter="url(#filter0_d_87_1031)">
<path d="M138.925 86.8148C155.503 84.6999 170.685 96.1989 172.836 112.499C173.753 119.444 172.153 126.143 168.732 131.705L173.795 143.311C174.357 144.595 173.101 145.921 171.762 145.469L159.311 141.287C155.627 143.646 151.363 145.254 146.71 145.847C130.133 147.962 114.95 136.463 112.799 120.163C110.648 103.863 122.343 88.9304 138.925 86.8148Z" fill="white"/>
</g>
<path d="M155.051 119.529C153.179 119.56 151.587 121.086 151.621 123.08C151.652 124.956 153.177 126.548 155.168 126.515C157.195 126.481 158.752 124.811 158.601 123.002L158.6 122.984L158.599 122.964C158.568 121.088 157.042 119.495 155.051 119.529Z" fill="url(#paint10_linear_87_1031)" stroke="url(#paint11_linear_87_1031)" stroke-width="1.16456"/>
<path d="M142.369 127.311C140.042 127.349 138.266 125.486 138.23 123.303C138.191 120.974 140.052 119.196 142.233 119.16C144.56 119.121 146.336 120.984 146.372 123.167C146.554 125.348 144.695 127.272 142.369 127.311Z" fill="url(#paint12_linear_87_1031)"/>
<path d="M129.434 119.955C127.561 119.986 125.97 121.513 126.003 123.507C126.035 125.383 127.56 126.974 129.55 126.941C131.578 126.908 133.134 125.237 132.984 123.429L132.982 123.41L132.982 123.391C132.951 121.515 131.425 119.922 129.434 119.955Z" fill="url(#paint13_linear_87_1031)" stroke="url(#paint14_linear_87_1031)" stroke-width="1.16456"/>
<path opacity="0.3" d="M192.398 40.3125L163.07 45.0663C162.769 45.1154 162.663 45.4855 162.889 45.6841L169.241 51.2747C169.351 51.3711 169.51 51.3935 169.643 51.3277L169.623 51.3391C169.501 51.3992 169.424 51.5189 169.421 51.6554L169.317 59.2715C169.312 59.5787 169.68 59.7484 169.917 59.5458L175.665 54.7201L182.95 61.0935C183.135 61.2551 183.425 61.1918 183.525 60.9696L192.512 40.6479C192.697 40.5563 192.604 40.2778 192.398 40.3125Z" fill="url(#paint15_linear_87_1031)"/>
<path d="M166.237 54.2198C161.307 56.1985 150.795 61.6585 154.554 69.6354C159.253 79.6064 169.588 74.8611 167.584 68.8058C165.188 61.5649 148.414 64.4598 150.138 75.1082C151.518 83.6268 142.23 77.6052 139.738 87.5171" stroke="url(#paint16_linear_87_1031)" stroke-width="1.43915" stroke-dasharray="1.44 1.44"/>
<path d="M191.137 35.474C191.254 35.4179 191.359 35.4627 191.417 35.5484C191.474 35.6332 191.474 35.7412 191.379 35.8229L169.806 53.9361L169.805 53.9371C169.659 54.0617 169.442 53.9547 169.444 53.775L169.444 53.774L169.549 46.1594C169.55 46.0983 169.575 46.0423 169.62 46.003L169.669 45.9697L191.136 35.473L191.137 35.474Z" fill="url(#paint17_linear_87_1031)" stroke="white" stroke-width="0.289333"/>
<path d="M175.546 48.5812L192.267 34.9815C192.385 34.8845 192.554 35.0121 192.493 35.1488L183.507 55.4705C183.409 55.6927 183.117 55.756 182.934 55.5944L175.536 49.1217C175.367 48.9771 175.372 48.721 175.546 48.5812Z" fill="url(#paint18_linear_87_1031)"/>
<path d="M163.054 39.5701L192.383 34.8134C192.588 34.7788 192.681 35.0573 192.493 35.1489L169.627 45.8315C169.494 45.8973 169.335 45.875 169.225 45.7785L162.874 40.1879C162.647 39.9865 162.753 39.6192 163.054 39.5701Z" fill="url(#paint19_linear_87_1031)"/>
<path d="M117.184 94.9101C102.594 93.1262 89.2949 103.31 87.4807 117.657C86.7078 123.769 88.1466 129.654 91.1822 134.53L86.784 144.761C86.2964 145.893 87.4072 147.054 88.5829 146.65L99.514 142.914C102.765 144.973 106.523 146.367 110.618 146.867C125.209 148.651 138.508 138.467 140.322 124.121C142.136 109.774 131.779 96.6944 117.184 94.9101Z" fill="url(#paint20_linear_87_1031)"/>
<path d="M106.469 120.713C103.998 120.719 101.917 119.169 101.12 116.936C100.921 116.451 101.216 115.964 101.71 115.768C102.204 115.573 102.699 115.863 102.898 116.348C103.396 117.805 104.882 118.87 106.464 118.866C108.046 118.862 109.527 117.886 110.017 116.33C110.213 115.843 110.707 115.55 111.202 115.744C111.697 115.937 111.995 116.422 111.798 116.908C111.014 119.243 108.941 120.706 106.469 120.713Z" fill="#F5FBFF"/>
<path d="M121.399 120.673C118.927 120.68 116.847 119.13 116.05 116.897C115.851 116.412 116.146 115.925 116.64 115.729C117.134 115.534 117.629 115.824 117.828 116.309C118.326 117.766 119.812 118.831 121.394 118.827C122.976 118.823 124.456 117.847 124.947 116.291C125.143 115.804 125.637 115.511 126.132 115.704C126.626 115.898 126.924 116.383 126.728 116.869C125.943 119.204 123.871 120.667 121.399 120.673Z" fill="#F5FBFF"/>
<path d="M114.017 132.592C115.273 132.589 116.288 131.586 116.285 130.351C116.281 129.117 115.26 128.118 114.005 128.122C112.749 128.125 111.733 129.128 111.737 130.363C111.74 131.598 112.761 132.596 114.017 132.592Z" fill="#F5FBFF"/>
<defs>
<filter id="filter0_d_87_1031" x="89.6357" y="70.2017" width="100.66" height="98.8035" filterUnits="userSpaceOnUse" color-interpolation-filters="sRGB">
<feFlood flood-opacity="0" result="BackgroundImageFix"/>
<feColorMatrix in="SourceAlpha" type="matrix" values="0 0 0 0 0 0 0 0 0 0 0 0 0 0 0 0 0 0 127 0" result="hardAlpha"/>
<feOffset dx="-3.27246" dy="3.27246"/>
<feGaussianBlur stdDeviation="9.81739"/>
<feComposite in2="hardAlpha" operator="out"/>
<feColorMatrix type="matrix" values="0 0 0 0 0.67451 0 0 0 0 0.721569 0 0 0 0 0.792157 0 0 0 0.5 0"/>
<feBlend mode="normal" in2="BackgroundImageFix" result="effect1_dropShadow_87_1031"/>
<feBlend mode="normal" in="SourceGraphic" in2="effect1_dropShadow_87_1031" result="shape"/>
</filter>
<linearGradient id="paint0_linear_87_1031" x1="0" y1="0.646505" x2="101.474" y2="206.173" gradientUnits="userSpaceOnUse">
<stop stop-color="#AACBFA"/>
<stop offset="1" stop-color="#C4DFFB"/>
</linearGradient>
<linearGradient id="paint1_linear_87_1031" x1="92.8729" y1="35.4024" x2="145.477" y2="42.111" gradientUnits="userSpaceOnUse">
<stop stop-color="#C5D2EC"/>
<stop offset="0.9964" stop-color="#F1F7FE"/>
</linearGradient>
<linearGradient id="paint2_linear_87_1031" x1="118.521" y1="47.9534" x2="125.583" y2="48.6484" gradientUnits="userSpaceOnUse">
<stop stop-color="#B0BBCC"/>
<stop offset="1" stop-color="#8D9EB7"/>
</linearGradient>
<linearGradient id="paint3_linear_87_1031" x1="-23.8253" y1="-20.2689" x2="59.8994" y2="-15.1631" gradientUnits="userSpaceOnUse">
<stop stop-color="#C5D2EC"/>
<stop offset="0.9964" stop-color="#F1F7FE"/>
</linearGradient>
<linearGradient id="paint4_linear_87_1031" x1="-23.8253" y1="-20.2689" x2="59.8994" y2="-15.1631" gradientUnits="userSpaceOnUse">
<stop stop-color="#C5D2EC"/>
<stop offset="0.9964" stop-color="#F1F7FE"/>
</linearGradient>
<linearGradient id="paint5_linear_87_1031" x1="43.409" y1="33.1924" x2="69.6653" y2="34.3341" gradientUnits="userSpaceOnUse">
<stop stop-color="#C5D2EC"/>
<stop offset="0.9964" stop-color="#F1F7FE"/>
</linearGradient>
<linearGradient id="paint6_linear_87_1031" x1="43.409" y1="33.1924" x2="69.6653" y2="34.3341" gradientUnits="userSpaceOnUse">
<stop stop-color="#C5D2EC"/>
<stop offset="0.9964" stop-color="#F1F7FE"/>
</linearGradient>
<linearGradient id="paint7_linear_87_1031" x1="-11.8598" y1="-4.08804" x2="29.0451" y2="2.06861" gradientUnits="userSpaceOnUse">
<stop stop-color="#C5D2EC"/>
<stop offset="0.9964" stop-color="#F1F7FE"/>
</linearGradient>
<linearGradient id="paint8_linear_87_1031" x1="58.3402" y1="40.8526" x2="93.8171" y2="45.5205" gradientUnits="userSpaceOnUse">
<stop stop-color="#B8C5E0"/>
<stop offset="0.9964" stop-color="#C9D8E8"/>
</linearGradient>
<linearGradient id="paint9_linear_87_1031" x1="5.48109" y1="0.0822775" x2="25.5103" y2="29.1118" gradientUnits="userSpaceOnUse">
<stop stop-color="#B0BBCC"/>
<stop offset="1" stop-color="#8D9EB7"/>
</linearGradient>
<linearGradient id="paint10_linear_87_1031" x1="155.046" y1="118.947" x2="155.181" y2="127.097" gradientUnits="userSpaceOnUse">
<stop stop-color="#FFB52E"/>
<stop offset="1" stop-color="#E69603"/>
</linearGradient>
<linearGradient id="paint11_linear_87_1031" x1="155.046" y1="118.947" x2="155.181" y2="127.097" gradientUnits="userSpaceOnUse">
<stop stop-color="#FFB52E"/>
<stop offset="1" stop-color="#E69603"/>
</linearGradient>
<linearGradient id="paint12_linear_87_1031" x1="152.405" y1="116.506" x2="131.939" y2="119.082" gradientUnits="userSpaceOnUse">
<stop stop-color="#B8C5E0"/>
<stop offset="0.9964" stop-color="#C9D8E8"/>
</linearGradient>
<linearGradient id="paint13_linear_87_1031" x1="129.429" y1="119.373" x2="129.564" y2="127.524" gradientUnits="userSpaceOnUse">
<stop stop-color="#FFB52E"/>
<stop offset="1" stop-color="#E69603"/>
</linearGradient>
<linearGradient id="paint14_linear_87_1031" x1="129.429" y1="119.373" x2="129.564" y2="127.524" gradientUnits="userSpaceOnUse">
<stop stop-color="#FFB52E"/>
<stop offset="1" stop-color="#E69603"/>
</linearGradient>
<linearGradient id="paint15_linear_87_1031" x1="140.269" y1="34.0918" x2="216.975" y2="47.9483" gradientUnits="userSpaceOnUse">
<stop stop-color="#C5D2EC"/>
<stop offset="0.9964" stop-color="#F1F7FE"/>
</linearGradient>
<linearGradient id="paint16_linear_87_1031" x1="141.343" y1="87.6444" x2="162.04" y2="99.0403" gradientUnits="userSpaceOnUse">
<stop stop-color="#B0BBCC"/>
<stop offset="1" stop-color="#8D9EB7"/>
</linearGradient>
<linearGradient id="paint17_linear_87_1031" x1="152.416" y1="29.6835" x2="208.381" y2="36.7916" gradientUnits="userSpaceOnUse">
<stop stop-color="#B8C5E0"/>
<stop offset="0.9964" stop-color="#C9D8E8"/>
</linearGradient>
<linearGradient id="paint18_linear_87_1031" x1="162.467" y1="28.7131" x2="207.444" y2="33.3551" gradientUnits="userSpaceOnUse">
<stop stop-color="#C5D2EC"/>
<stop offset="0.9964" stop-color="#F1F7FE"/>
</linearGradient>
<linearGradient id="paint19_linear_87_1031" x1="140.262" y1="31.5951" x2="211.026" y2="55.9891" gradientUnits="userSpaceOnUse">
<stop stop-color="#C5D2EC"/>
<stop offset="0.9964" stop-color="#F1F7FE"/>
</linearGradient>
<linearGradient id="paint20_linear_87_1031" x1="90.5377" y1="91.6523" x2="144.17" y2="112.187" gradientUnits="userSpaceOnUse">
<stop stop-color="#81A8FB"/>
<stop offset="1" stop-color="#4F84F7"/>
</linearGradient>
<clipPath id="clip0_87_1031">
<rect width="242.72" height="147.239" fill="white" transform="matrix(0.999997 -0.0026189 0.00270887 0.999996 0 0.646505)"/>
</clipPath>
</defs>
</svg>
