<svg width="212" height="228" viewBox="0 0 212 228" fill="none" xmlns="http://www.w3.org/2000/svg">
<g filter="url(#filter0_f_87_902)">
<ellipse cx="102.935" cy="191.456" rx="76.7163" ry="17.8313" transform="rotate(-0.152608 102.935 191.456)" fill="#FFEBE7"/>
</g>
<path d="M103.967 205.472C156.506 205.332 198.983 162.628 198.843 110.09C198.703 57.5514 155.999 15.0743 103.461 15.2142C50.9226 15.3541 8.44547 58.0581 8.58541 110.596C8.72534 163.134 51.4293 205.611 103.967 205.472Z" fill="url(#paint0_linear_87_902)"/>
<path d="M150.665 27.5289L54.8763 27.7841C51.3121 27.7936 47.8977 29.2186 45.3841 31.7455C42.8706 34.2725 41.4638 37.6945 41.4733 41.2587L41.764 150.412L41.9283 150.412L42.0304 188.742C42.0342 190.222 42.4172 191.676 43.1429 192.966C43.8686 194.256 44.9128 195.339 46.1758 196.11C47.4388 196.882 48.8784 197.317 50.3573 197.374C51.8362 197.431 53.3051 197.108 54.6237 196.436L98.748 173.92C99.9502 173.313 101.277 172.995 102.624 172.992C103.971 172.988 105.3 173.299 106.505 173.9L152.108 196.341C153.431 196.992 154.898 197.294 156.371 197.22C157.844 197.145 159.273 196.695 160.523 195.914C161.774 195.132 162.804 194.044 163.516 192.753C164.228 191.461 164.599 190.01 164.593 188.535L164.371 150.085L164.08 40.8948C164.061 37.3474 162.64 33.9516 160.127 31.4477C157.614 28.9439 154.213 27.5352 150.665 27.5289Z" fill="url(#paint1_linear_87_902)"/>
<path d="M210.824 62.7204C210.835 65.6255 209.788 68.4354 207.88 70.6261C205.973 72.8169 203.333 74.2389 200.454 74.6272C199.928 74.6957 199.398 74.7316 198.867 74.7346L159.01 74.8408C158.145 74.8412 157.282 74.7723 156.428 74.6347C152.763 74.0123 149.457 72.0561 147.148 69.1427C144.838 66.2292 143.688 62.5645 143.918 58.8538C144.149 55.1431 145.743 51.6488 148.396 49.0434C151.048 46.4381 154.57 44.9058 158.284 44.7416C160.198 40.5561 163.422 37.1066 167.468 34.9133C171.514 32.72 176.164 31.9019 180.716 32.5824C185.267 33.2629 189.474 35.4052 192.702 38.686C195.93 41.9668 198.003 46.2083 198.609 50.7706L198.79 50.7701C200.365 50.7634 201.926 51.0673 203.384 51.6644C204.841 52.2616 206.167 53.1402 207.285 54.2502C208.402 55.3601 209.29 56.6795 209.898 58.133C210.505 59.5864 210.819 61.1452 210.824 62.7204Z" fill="url(#paint2_linear_87_902)"/>
<path d="M8.08828 39.7921C8.09466 42.1879 9.05252 44.4831 10.7511 46.1727C12.4498 47.8623 14.75 48.8079 17.1458 48.8015L47.137 48.7216C50.092 48.6981 52.921 47.5218 55.0214 45.4432C57.1218 43.3646 58.3276 40.5481 58.382 37.5935C58.4364 34.639 57.335 31.78 55.3125 29.6255C53.29 27.471 50.5062 26.1914 47.5541 26.0592C46.09 22.9274 43.6495 20.355 40.5991 18.7282C37.5486 17.1015 34.0528 16.5081 30.6364 17.0371C27.2199 17.5661 24.0673 19.1891 21.6518 21.6623C19.2362 24.1355 17.688 27.3256 17.2397 30.7535L17.1042 30.7538C14.7106 30.7585 12.4167 31.713 10.7263 33.4076C9.03581 35.1022 8.08703 37.3985 8.08828 39.7921Z" fill="url(#paint3_linear_87_902)"/>
<g filter="url(#filter1_f_87_902)">
<ellipse cx="107.01" cy="128.977" rx="43.2433" ry="9.26642" transform="rotate(-0.152608 107.01 128.977)" fill="#FF7C86" fill-opacity="0.39"/>
</g>
<path d="M106.379 49.0447L117.067 70.5559C117.385 71.1937 117.852 71.7449 118.429 72.1621C119.006 72.5793 119.676 72.8501 120.381 72.9512L144.155 76.3148C144.96 76.4359 145.715 76.7781 146.337 77.3032C146.959 77.8284 147.424 78.5159 147.678 79.2892C147.932 80.0625 147.967 80.8913 147.778 81.6831C147.589 82.475 147.185 83.1989 146.609 83.7743L129.481 100.581C128.972 101.08 128.592 101.695 128.374 102.373C128.156 103.051 128.106 103.773 128.23 104.474L132.355 128.131C132.496 128.94 132.408 129.772 132.101 130.533C131.794 131.295 131.28 131.955 130.617 132.439C129.953 132.924 129.168 133.213 128.349 133.274C127.53 133.335 126.711 133.165 125.983 132.784L104.698 121.642C104.066 121.313 103.363 121.142 102.651 121.143C101.938 121.145 101.237 121.32 100.607 121.653L79.3806 132.908C78.6554 133.291 77.8377 133.463 77.0198 133.406C76.2019 133.348 75.4164 133.063 74.752 132.582C74.0876 132.102 73.5707 131.445 73.2598 130.687C72.9488 129.928 72.8561 129.098 72.9922 128.289L76.9833 104.611C77.1031 103.908 77.0499 103.187 76.8283 102.51C76.6066 101.833 76.2232 101.22 75.7111 100.724L58.4946 84.009C57.9157 83.4367 57.5069 82.7149 57.3139 81.9241C57.1209 81.1332 57.1512 80.3043 57.4015 79.5297C57.6518 78.755 58.1121 78.065 58.7313 77.5366C59.3506 77.0081 60.1043 76.6619 60.9087 76.5365L84.6638 73.0239C85.3683 72.9191 86.0368 72.6448 86.6119 72.2245C87.1869 71.8042 87.6512 71.2505 87.9649 70.611L98.5391 49.0432C98.9072 48.3199 99.4682 47.7126 100.16 47.2884C100.852 46.8643 101.648 46.6398 102.459 46.64C103.271 46.6401 104.067 46.8649 104.758 47.2893C105.45 47.7137 106.011 48.3213 106.379 49.0447Z" fill="url(#paint4_linear_87_902)"/>
<path d="M0.412872 155.311C0.419148 158.204 1.47699 160.996 3.3893 163.167C5.30161 165.338 7.93794 166.74 10.8071 167.111C11.329 167.182 11.8551 167.217 12.3818 167.216L52.0646 167.111C52.9293 167.107 53.7922 167.034 54.6451 166.891C58.3122 166.27 61.6182 164.31 63.9215 161.389C66.2247 158.469 67.3611 154.797 67.11 151.086C66.859 147.376 65.2384 143.89 62.5628 141.307C59.8872 138.723 56.3473 137.226 52.63 137.105C50.6994 132.95 47.4707 129.535 43.4305 127.374C39.3903 125.214 34.7574 124.425 30.2299 125.127C25.7023 125.828 21.5254 127.982 18.3285 131.264C15.1316 134.546 13.0879 138.778 12.5053 143.322L12.3181 143.323C10.7489 143.327 9.19589 143.64 7.74796 144.245C6.30002 144.85 4.98556 145.735 3.87981 146.848C2.77405 147.962 1.89868 149.282 1.30379 150.735C0.708893 152.187 0.406148 153.742 0.412872 155.311Z" fill="url(#paint5_linear_87_902)"/>
<path d="M178.981 88.8648C178.717 87.8415 179.66 86.9163 180.679 87.1995L187.551 89.111C188.569 89.3942 188.899 90.6734 188.145 91.4135L183.053 96.4094C182.299 97.1496 181.026 96.7956 180.762 95.7723L178.981 88.8648Z" fill="#FFBEBD"/>
<path d="M20.4227 89.2872C20.1589 88.2639 21.1018 87.3387 22.1199 87.6219L28.9923 89.5334C30.0104 89.8166 30.3402 91.0957 29.5859 91.8359L24.4943 96.8318C23.74 97.5719 22.4673 97.218 22.2035 96.1946L20.4227 89.2872Z" fill="#FFBEBD"/>
<path d="M73.5071 6.99926C73.9084 5.31711 76.2995 5.31074 76.7098 6.99073L78.0906 12.6449C78.2372 13.2453 78.7075 13.7131 79.3087 13.8565L84.9702 15.2072C86.6523 15.6085 86.6587 17.9996 84.9787 18.4099L79.3245 19.7908C78.7241 19.9374 78.2563 20.4077 78.1129 21.0088L76.7622 26.6703C76.3609 28.3524 73.9698 28.3588 73.5595 26.6788L72.1786 21.0246C72.032 20.4243 71.5617 19.9565 70.9606 19.813L65.2991 18.4623C63.617 18.061 63.6106 15.6699 65.2906 15.2596L70.9448 13.8788C71.5452 13.7322 72.0129 13.2619 72.1564 12.6607L73.5071 6.99926Z" fill="#FFBEBD"/>
<path d="M107.159 184.575C109.244 184.569 110.939 186.255 110.944 188.34C110.95 190.425 109.264 192.12 107.179 192.125C105.094 192.131 103.399 190.445 103.394 188.36C103.388 186.275 105.074 184.58 107.159 184.575Z" stroke="#FFBEBD" stroke-width="2.0592"/>
<path d="M178.241 157.043C178.643 155.361 181.034 155.354 181.444 157.034L182.825 162.689C182.972 163.289 183.442 163.757 184.043 163.9L189.705 165.251C191.387 165.652 191.393 168.043 189.713 168.454L184.059 169.834C183.458 169.981 182.991 170.451 182.847 171.053L181.497 176.714C181.095 178.396 178.704 178.403 178.294 176.723L176.913 171.068C176.766 170.468 176.296 170 175.695 169.857L170.033 168.506C168.351 168.105 168.345 165.714 170.025 165.303L175.679 163.922C176.28 163.776 176.747 163.306 176.891 162.704L178.241 157.043Z" fill="#FFBEBD"/>
<circle cx="184.583" cy="133.232" r="3.77521" transform="rotate(-0.152608 184.583 133.232)" stroke="#FC9999" stroke-width="2.0592"/>
<defs>
<filter id="filter0_f_87_902" x="8.16099" y="155.566" width="189.549" height="71.7806" filterUnits="userSpaceOnUse" color-interpolation-filters="sRGB">
<feFlood flood-opacity="0" result="BackgroundImageFix"/>
<feBlend mode="normal" in="SourceGraphic" in2="BackgroundImageFix" result="shape"/>
<feGaussianBlur stdDeviation="9.02888" result="effect1_foregroundBlur_87_902"/>
</filter>
<filter id="filter1_f_87_902" x="46.6056" y="102.55" width="120.808" height="52.8542" filterUnits="userSpaceOnUse" color-interpolation-filters="sRGB">
<feFlood flood-opacity="0" result="BackgroundImageFix"/>
<feBlend mode="normal" in="SourceGraphic" in2="BackgroundImageFix" result="shape"/>
<feGaussianBlur stdDeviation="8.58002" result="effect1_foregroundBlur_87_902"/>
</filter>
<linearGradient id="paint0_linear_87_902" x1="102.645" y1="-15.7601" x2="105.483" y2="318.312" gradientUnits="userSpaceOnUse">
<stop stop-color="#FFE1E1" stop-opacity="0"/>
<stop offset="1" stop-color="#FFE1E0"/>
</linearGradient>
<linearGradient id="paint1_linear_87_902" x1="194.497" y1="205.869" x2="47.0108" y2="74.0581" gradientUnits="userSpaceOnUse">
<stop stop-color="#FF9999"/>
<stop offset="1" stop-color="#FFE7DA"/>
</linearGradient>
<linearGradient id="paint2_linear_87_902" x1="198.204" y1="93.0409" x2="164.752" y2="32.3832" gradientUnits="userSpaceOnUse">
<stop stop-color="#FFBEBD"/>
<stop offset="1" stop-color="#FFF6F5"/>
</linearGradient>
<linearGradient id="paint3_linear_87_902" x1="48.9049" y1="62.4791" x2="23.7495" y2="16.8807" gradientUnits="userSpaceOnUse">
<stop stop-color="#FFBEBD"/>
<stop offset="1" stop-color="#FFF6F5"/>
</linearGradient>
<linearGradient id="paint4_linear_87_902" x1="64.4783" y1="70.0054" x2="227.078" y2="132.943" gradientUnits="userSpaceOnUse">
<stop stop-color="#FFDEAC"/>
<stop offset="0.70369" stop-color="#FF426F"/>
</linearGradient>
<linearGradient id="paint5_linear_87_902" x1="54.5676" y1="185.34" x2="21.2583" y2="124.883" gradientUnits="userSpaceOnUse">
<stop stop-color="#FFBEBD"/>
<stop offset="1" stop-color="#FFF6F5"/>
</linearGradient>
</defs>
</svg>
