<svg width="240" height="168" viewBox="0 0 240 168" fill="none" xmlns="http://www.w3.org/2000/svg">
<g clip-path="url(#clip0_87_1032)">
<path opacity="0.15" d="M188.187 32.8667C188.187 32.8667 181.383 -19.2658 142.162 18.3327C91.8826 66.5284 57.7451 -28.9046 20.4554 10.1866C0.083318 31.542 54.1932 79.0372 18.2069 104.204C-17.7793 129.371 11.7325 148.061 11.7325 148.061L216.451 147.516C216.451 147.516 237.648 148.99 239.18 122.169C240.711 95.3478 216.074 95.0885 231.275 61.4892C246.475 27.8899 193.049 54.2139 188.187 32.8667Z" fill="url(#paint0_linear_87_1032)"/>
<g opacity="0.45">
<rect x="184.633" y="74.5896" width="14.8889" height="73.0265" transform="rotate(-0.152608 184.633 74.5896)" fill="url(#paint1_linear_87_1032)"/>
<rect x="142.891" y="106.606" width="14.8889" height="41.1217" transform="rotate(-0.152608 142.891 106.606)" fill="url(#paint2_linear_87_1032)"/>
<path d="M157.628 49.1378L171.069 37.7581L184.57 49.0661L184.832 147.616L157.89 147.688L157.628 49.1378Z" fill="url(#paint3_linear_87_1032)"/>
<rect x="161.887" y="52.6714" width="7.79894" height="19.1429" transform="rotate(-0.152608 161.887 52.6714)" fill="white"/>
<rect x="161.945" y="74.6501" width="7.79894" height="19.1429" transform="rotate(-0.152608 161.945 74.6501)" fill="white"/>
<rect x="162.008" y="96.6289" width="7.79894" height="19.1429" transform="rotate(-0.152608 162.008 96.6289)" fill="white"/>
<rect x="172.523" y="52.6431" width="7.79894" height="19.1429" transform="rotate(-0.152608 172.523 52.6431)" fill="white"/>
<rect x="172.582" y="74.6218" width="7.79894" height="19.1429" transform="rotate(-0.152608 172.582 74.6218)" fill="white"/>
<rect x="172.645" y="96.6006" width="7.79894" height="19.1429" transform="rotate(-0.152608 172.645 96.6006)" fill="white"/>
<rect x="162.066" y="119.317" width="18.4339" height="28.3598" transform="rotate(-0.152608 162.066 119.317)" fill="white"/>
<rect x="64.7461" y="49.3853" width="19.8519" height="98.5503" transform="rotate(-0.152608 64.7461 49.3853)" fill="url(#paint4_linear_87_1032)"/>
<rect x="68.2773" y="43.7036" width="12.7619" height="5.67196" transform="rotate(-0.152608 68.2773 43.7036)" fill="url(#paint5_linear_87_1032)"/>
<path d="M70.3913 38.0262L74.6368 34.8244L78.8992 38.0035L78.9143 43.6754L70.4064 43.6981L70.3913 38.0262Z" fill="url(#paint6_linear_87_1032)"/>
<path d="M84.6914 84.073L104.573 95.364L104.713 147.829L84.8614 147.882L84.6914 84.073Z" fill="url(#paint7_linear_87_1032)"/>
</g>
<path d="M11.4727 147.743L206.545 147.224" stroke="#9CACCE" stroke-width="1.41799" stroke-miterlimit="10"/>
<path d="M213.375 147.206L237.484 147.142" stroke="#9CACCE" stroke-width="1.41799" stroke-miterlimit="10"/>
</g>
<g filter="url(#filter0_d_87_1032)">
<path d="M164.877 146.252L145.446 138.891L124.169 147.479L101.019 138.95L83.3365 145.764C81.745 146.356 80.0891 144.89 80.5567 143.241L91.4884 105.146C91.8391 103.91 92.7213 102.848 93.8999 102.315L111.578 93.9727L124.051 102.882L136.184 95.1427L155.795 103.68C157.095 104.265 158.042 105.381 158.34 106.733L167.643 143.833C168.061 145.42 166.471 146.837 164.877 146.252Z" fill="white"/>
</g>
<path d="M111.578 94.0316L101.018 138.95L83.3363 145.764C81.7449 146.356 80.0889 144.89 80.5566 143.241L91.4882 105.146C91.8389 103.91 92.7211 102.848 93.8997 102.315L111.578 94.0316Z" fill="url(#paint8_linear_87_1032)"/>
<path d="M145.506 138.891L124.171 147.479L124.052 102.883L136.185 95.1429L145.506 138.891Z" fill="url(#paint9_linear_87_1032)"/>
<mask id="path-21-inside-1_87_1032" fill="white">
<path d="M105.057 128.762C104.998 128.762 104.939 128.762 104.821 128.762C104.585 128.704 104.408 128.704 104.171 128.646C103.522 128.471 103.166 127.884 103.283 127.237C103.399 126.589 104.047 126.234 104.696 126.35C104.873 126.409 105.05 126.408 105.228 126.467C105.877 126.582 106.291 127.17 106.175 127.817C106.118 128.406 105.647 128.76 105.057 128.762ZM109.186 128.633C108.655 128.634 108.182 128.283 108.063 127.753C107.884 127.107 108.296 126.458 108.944 126.339C109.121 126.28 109.298 126.22 109.475 126.22C110.124 126.042 110.773 126.393 110.952 126.981C111.131 127.628 110.778 128.276 110.189 128.454C109.953 128.513 109.776 128.572 109.54 128.632C109.363 128.632 109.245 128.633 109.186 128.633ZM100.745 127.008C100.509 127.009 100.273 126.95 100.096 126.833C99.9182 126.716 99.7409 126.599 99.5636 126.482C99.0316 126.13 98.9116 125.366 99.2642 124.835C99.6168 124.305 100.383 124.185 100.915 124.536C101.093 124.654 101.211 124.771 101.388 124.829C101.92 125.181 102.099 125.887 101.747 126.476C101.512 126.829 101.158 127.007 100.745 127.008ZM113.429 126.68C113.075 126.681 112.662 126.506 112.425 126.153C112.069 125.625 112.185 124.859 112.774 124.505C112.951 124.387 113.069 124.328 113.246 124.209C113.776 123.855 114.543 123.971 114.898 124.499C115.254 125.028 115.138 125.793 114.608 126.147C114.431 126.266 114.254 126.384 114.078 126.502C113.901 126.561 113.665 126.679 113.429 126.68ZM143.162 125.189C142.572 125.19 142.039 124.721 141.979 124.074C141.918 123.427 142.447 122.837 143.096 122.836C143.214 122.835 143.391 122.835 143.568 122.776C144.217 122.656 144.808 123.066 144.928 123.713C145.047 124.36 144.636 124.95 143.987 125.069C143.751 125.128 143.515 125.129 143.28 125.188C143.221 125.189 143.221 125.189 143.162 125.189ZM97.1378 123.958C96.8428 123.959 96.4885 123.842 96.3109 123.607C96.1926 123.49 96.0151 123.314 95.8966 123.138C95.4234 122.668 95.4803 121.903 95.9512 121.49C96.4222 121.077 97.1892 121.075 97.6034 121.545C97.7217 121.662 97.8402 121.838 98.0175 121.955C98.4908 122.425 98.4338 123.19 97.9629 123.603C97.7275 123.839 97.4328 123.957 97.1378 123.958ZM139.382 123.846C139.146 123.846 138.851 123.788 138.673 123.612C138.496 123.495 138.319 123.378 138.2 123.202C137.727 122.791 137.666 122.026 138.078 121.555C138.49 121.083 139.256 121.022 139.73 121.433C139.848 121.55 140.025 121.667 140.144 121.784C140.676 122.195 140.737 122.901 140.325 123.431C140.09 123.667 139.736 123.845 139.382 123.846ZM117.138 123.728C116.784 123.729 116.489 123.612 116.252 123.319C115.838 122.849 115.895 122.084 116.366 121.671C116.543 121.553 116.66 121.435 116.778 121.317C117.249 120.904 118.016 120.961 118.43 121.43C118.845 121.9 118.788 122.665 118.317 123.078C118.14 123.196 118.022 123.314 117.846 123.491C117.669 123.668 117.433 123.728 117.138 123.728ZM147.523 123.471C147.11 123.472 146.756 123.297 146.519 122.944C146.163 122.416 146.338 121.65 146.868 121.296C147.045 121.178 147.163 121.119 147.34 121C147.87 120.646 148.637 120.762 148.992 121.29C149.348 121.819 149.232 122.584 148.702 122.938C148.525 123.056 148.348 123.175 148.172 123.293C147.936 123.411 147.7 123.471 147.523 123.471ZM135.951 120.619C135.656 120.62 135.361 120.503 135.124 120.268C135.006 120.151 134.829 120.034 134.71 119.857C134.237 119.447 134.176 118.682 134.647 118.21C135.059 117.738 135.826 117.678 136.299 118.147C136.476 118.264 136.595 118.44 136.772 118.558C137.245 119.027 137.247 119.733 136.835 120.205C136.541 120.5 136.246 120.618 135.951 120.619ZM151.232 120.578C150.878 120.579 150.583 120.462 150.346 120.169C149.932 119.699 149.989 118.934 150.46 118.521C150.578 118.403 150.754 118.285 150.872 118.167C151.343 117.754 152.11 117.811 152.524 118.28C152.939 118.75 152.882 119.515 152.411 119.928C152.234 120.046 152.116 120.164 151.94 120.341C151.822 120.518 151.527 120.577 151.232 120.578ZM120.552 120.542C120.257 120.543 119.962 120.426 119.725 120.191C119.252 119.722 119.25 119.016 119.721 118.544L120.133 118.131C120.603 117.659 121.311 117.657 121.784 118.068C122.258 118.537 122.26 119.243 121.848 119.715L121.436 120.128C121.201 120.423 120.906 120.541 120.552 120.542ZM94.1193 120.377C93.7653 120.378 93.4108 120.203 93.174 119.909C93.0555 119.733 92.9372 119.616 92.8188 119.439C92.4043 118.911 92.5205 118.205 93.0504 117.791C93.5803 117.378 94.2886 117.494 94.703 118.022L95.0583 118.492C95.4727 119.021 95.3565 119.727 94.8266 120.14C94.591 120.258 94.3553 120.377 94.1193 120.377ZM132.344 117.628C132.108 117.629 131.872 117.57 131.636 117.395C131.458 117.277 131.34 117.16 131.163 117.043C130.631 116.691 130.511 115.927 130.922 115.396C131.275 114.866 132.042 114.746 132.574 115.156C132.751 115.273 132.869 115.391 133.047 115.508C133.579 115.918 133.699 116.624 133.287 117.155C133.052 117.45 132.698 117.627 132.344 117.628ZM154.764 117.451C154.469 117.451 154.115 117.335 153.878 117.1C153.405 116.631 153.462 115.866 153.933 115.452L154.345 115.039C154.815 114.568 155.583 114.624 155.997 115.094C156.47 115.563 156.413 116.328 155.942 116.741L155.53 117.154C155.354 117.331 155.059 117.45 154.764 117.451ZM123.788 117.062C123.493 117.063 123.197 116.946 122.961 116.77C122.488 116.301 122.427 115.595 122.898 115.123C123.015 114.946 123.192 114.828 123.309 114.651C123.78 114.18 124.488 114.178 124.961 114.647C125.435 115.116 125.436 115.822 124.966 116.294C124.848 116.412 124.731 116.589 124.554 116.707C124.377 116.943 124.083 117.062 123.788 117.062ZM91.3949 116.502C90.9819 116.503 90.6274 116.327 90.3905 115.975L90.0352 115.505C89.6798 114.976 89.8548 114.211 90.3849 113.857C90.9149 113.502 91.6824 113.677 92.0378 114.205L92.3341 114.675C92.6895 115.204 92.5735 115.969 91.9844 116.323C91.8668 116.441 91.6309 116.501 91.3949 116.502ZM128.326 115.168C128.208 115.168 128.031 115.168 127.913 115.11C127.735 115.052 127.617 115.052 127.499 114.993C126.85 114.877 126.435 114.231 126.611 113.584C126.786 112.936 127.375 112.523 128.024 112.697C128.26 112.756 128.497 112.814 128.733 112.931C129.323 113.165 129.679 113.811 129.445 114.459C129.21 114.871 128.798 115.166 128.326 115.168Z"/>
</mask>
<path d="M105.057 128.762C104.998 128.762 104.939 128.762 104.821 128.762C104.585 128.704 104.408 128.704 104.171 128.646C103.522 128.471 103.166 127.884 103.283 127.237C103.399 126.589 104.047 126.234 104.696 126.35C104.873 126.409 105.05 126.408 105.228 126.467C105.877 126.582 106.291 127.17 106.175 127.817C106.118 128.406 105.647 128.76 105.057 128.762ZM109.186 128.633C108.655 128.634 108.182 128.283 108.063 127.753C107.884 127.107 108.296 126.458 108.944 126.339C109.121 126.28 109.298 126.22 109.475 126.22C110.124 126.042 110.773 126.393 110.952 126.981C111.131 127.628 110.778 128.276 110.189 128.454C109.953 128.513 109.776 128.572 109.54 128.632C109.363 128.632 109.245 128.633 109.186 128.633ZM100.745 127.008C100.509 127.009 100.273 126.95 100.096 126.833C99.9182 126.716 99.7409 126.599 99.5636 126.482C99.0316 126.13 98.9116 125.366 99.2642 124.835C99.6168 124.305 100.383 124.185 100.915 124.536C101.093 124.654 101.211 124.771 101.388 124.829C101.92 125.181 102.099 125.887 101.747 126.476C101.512 126.829 101.158 127.007 100.745 127.008ZM113.429 126.68C113.075 126.681 112.662 126.506 112.425 126.153C112.069 125.625 112.185 124.859 112.774 124.505C112.951 124.387 113.069 124.328 113.246 124.209C113.776 123.855 114.543 123.971 114.898 124.499C115.254 125.028 115.138 125.793 114.608 126.147C114.431 126.266 114.254 126.384 114.078 126.502C113.901 126.561 113.665 126.679 113.429 126.68ZM143.162 125.189C142.572 125.19 142.039 124.721 141.979 124.074C141.918 123.427 142.447 122.837 143.096 122.836C143.214 122.835 143.391 122.835 143.568 122.776C144.217 122.656 144.808 123.066 144.928 123.713C145.047 124.36 144.636 124.95 143.987 125.069C143.751 125.128 143.515 125.129 143.28 125.188C143.221 125.189 143.221 125.189 143.162 125.189ZM97.1378 123.958C96.8428 123.959 96.4885 123.842 96.3109 123.607C96.1926 123.49 96.0151 123.314 95.8966 123.138C95.4234 122.668 95.4803 121.903 95.9512 121.49C96.4222 121.077 97.1892 121.075 97.6034 121.545C97.7217 121.662 97.8402 121.838 98.0175 121.955C98.4908 122.425 98.4338 123.19 97.9629 123.603C97.7275 123.839 97.4328 123.957 97.1378 123.958ZM139.382 123.846C139.146 123.846 138.851 123.788 138.673 123.612C138.496 123.495 138.319 123.378 138.2 123.202C137.727 122.791 137.666 122.026 138.078 121.555C138.49 121.083 139.256 121.022 139.73 121.433C139.848 121.55 140.025 121.667 140.144 121.784C140.676 122.195 140.737 122.901 140.325 123.431C140.09 123.667 139.736 123.845 139.382 123.846ZM117.138 123.728C116.784 123.729 116.489 123.612 116.252 123.319C115.838 122.849 115.895 122.084 116.366 121.671C116.543 121.553 116.66 121.435 116.778 121.317C117.249 120.904 118.016 120.961 118.43 121.43C118.845 121.9 118.788 122.665 118.317 123.078C118.14 123.196 118.022 123.314 117.846 123.491C117.669 123.668 117.433 123.728 117.138 123.728ZM147.523 123.471C147.11 123.472 146.756 123.297 146.519 122.944C146.163 122.416 146.338 121.65 146.868 121.296C147.045 121.178 147.163 121.119 147.34 121C147.87 120.646 148.637 120.762 148.992 121.29C149.348 121.819 149.232 122.584 148.702 122.938C148.525 123.056 148.348 123.175 148.172 123.293C147.936 123.411 147.7 123.471 147.523 123.471ZM135.951 120.619C135.656 120.62 135.361 120.503 135.124 120.268C135.006 120.151 134.829 120.034 134.71 119.857C134.237 119.447 134.176 118.682 134.647 118.21C135.059 117.738 135.826 117.678 136.299 118.147C136.476 118.264 136.595 118.44 136.772 118.558C137.245 119.027 137.247 119.733 136.835 120.205C136.541 120.5 136.246 120.618 135.951 120.619ZM151.232 120.578C150.878 120.579 150.583 120.462 150.346 120.169C149.932 119.699 149.989 118.934 150.46 118.521C150.578 118.403 150.754 118.285 150.872 118.167C151.343 117.754 152.11 117.811 152.524 118.28C152.939 118.75 152.882 119.515 152.411 119.928C152.234 120.046 152.116 120.164 151.94 120.341C151.822 120.518 151.527 120.577 151.232 120.578ZM120.552 120.542C120.257 120.543 119.962 120.426 119.725 120.191C119.252 119.722 119.25 119.016 119.721 118.544L120.133 118.131C120.603 117.659 121.311 117.657 121.784 118.068C122.258 118.537 122.26 119.243 121.848 119.715L121.436 120.128C121.201 120.423 120.906 120.541 120.552 120.542ZM94.1193 120.377C93.7653 120.378 93.4108 120.203 93.174 119.909C93.0555 119.733 92.9372 119.616 92.8188 119.439C92.4043 118.911 92.5205 118.205 93.0504 117.791C93.5803 117.378 94.2886 117.494 94.703 118.022L95.0583 118.492C95.4727 119.021 95.3565 119.727 94.8266 120.14C94.591 120.258 94.3553 120.377 94.1193 120.377ZM132.344 117.628C132.108 117.629 131.872 117.57 131.636 117.395C131.458 117.277 131.34 117.16 131.163 117.043C130.631 116.691 130.511 115.927 130.922 115.396C131.275 114.866 132.042 114.746 132.574 115.156C132.751 115.273 132.869 115.391 133.047 115.508C133.579 115.918 133.699 116.624 133.287 117.155C133.052 117.45 132.698 117.627 132.344 117.628ZM154.764 117.451C154.469 117.451 154.115 117.335 153.878 117.1C153.405 116.631 153.462 115.866 153.933 115.452L154.345 115.039C154.815 114.568 155.583 114.624 155.997 115.094C156.47 115.563 156.413 116.328 155.942 116.741L155.53 117.154C155.354 117.331 155.059 117.45 154.764 117.451ZM123.788 117.062C123.493 117.063 123.197 116.946 122.961 116.77C122.488 116.301 122.427 115.595 122.898 115.123C123.015 114.946 123.192 114.828 123.309 114.651C123.78 114.18 124.488 114.178 124.961 114.647C125.435 115.116 125.436 115.822 124.966 116.294C124.848 116.412 124.731 116.589 124.554 116.707C124.377 116.943 124.083 117.062 123.788 117.062ZM91.3949 116.502C90.9819 116.503 90.6274 116.327 90.3905 115.975L90.0352 115.505C89.6798 114.976 89.8548 114.211 90.3849 113.857C90.9149 113.502 91.6824 113.677 92.0378 114.205L92.3341 114.675C92.6895 115.204 92.5735 115.969 91.9844 116.323C91.8668 116.441 91.6309 116.501 91.3949 116.502ZM128.326 115.168C128.208 115.168 128.031 115.168 127.913 115.11C127.735 115.052 127.617 115.052 127.499 114.993C126.85 114.877 126.435 114.231 126.611 113.584C126.786 112.936 127.375 112.523 128.024 112.697C128.26 112.756 128.497 112.814 128.733 112.931C129.323 113.165 129.679 113.811 129.445 114.459C129.21 114.871 128.798 115.166 128.326 115.168Z" stroke="#9CACCE" stroke-width="1.41799" mask="url(#path-21-inside-1_87_1032)"/>
<path d="M123.94 62.6989C134.737 62.6701 143.492 71.3543 143.521 82.121C143.544 90.7108 131.199 107.747 126.143 114.35C125.084 115.765 122.96 115.77 121.895 114.361C116.803 107.785 104.368 90.8151 104.345 82.2253C104.434 71.4584 113.143 62.7276 123.94 62.6989Z" fill="url(#paint10_linear_87_1032)"/>
<path d="M124.016 89.821C128.285 89.8096 131.736 86.3497 131.725 82.0931C131.713 77.8365 128.244 74.395 123.975 74.4064C119.706 74.4178 116.255 77.8777 116.267 82.1343C116.278 86.3909 119.748 89.8323 124.016 89.821Z" fill="white"/>
<path d="M41.9418 88.6081C41.9418 88.6081 39.1674 87.5745 37.7971 92.7698C36.4268 97.965 32.2683 96.9517 31.2442 102.849C30.2201 108.746 31.6067 114.637 30.5909 117.411C29.575 120.185 26.4545 124.715 28.8932 130.245C31.3319 135.775 36.8811 139.238 44.495 137.136C52.109 135.034 59.3926 135.71 60.3868 123.574C61.381 111.438 51.3582 114.236 51.6921 109.037C52.0259 103.838 57.2135 102.087 53.3925 97.2435C49.5715 92.4002 46.8036 93.7934 45.0634 90.6784C43.3232 87.5634 41.9418 88.6081 41.9418 88.6081Z" fill="#B0E4CE"/>
<path d="M43.394 147.635L43.0367 92.6L42.8512 92.6005L41.4125 147.745L43.394 147.635Z" fill="#4D6173"/>
<path d="M41.7575 133.725L29.5508 124.7L42.4925 132.43L41.7575 133.725Z" fill="#4D6173"/>
<path d="M42.6422 116.294L33.5742 109.592L43.1893 115.332L42.6422 116.294Z" fill="#4D6173"/>
<path d="M43.219 127.253L55.3775 118.164L42.4738 125.959L43.219 127.253Z" fill="#4D6173"/>
<path d="M43.2767 106.294L51.2677 100.322L42.7909 105.444L43.2767 106.294Z" fill="#4D6173"/>
<defs>
<filter id="filter0_d_87_1032" x="60.6247" y="79.7928" width="121.266" height="87.5379" filterUnits="userSpaceOnUse" color-interpolation-filters="sRGB">
<feFlood flood-opacity="0" result="BackgroundImageFix"/>
<feColorMatrix in="SourceAlpha" type="matrix" values="0 0 0 0 0 0 0 0 0 0 0 0 0 0 0 0 0 0 127 0" result="hardAlpha"/>
<feOffset dx="-2.83598" dy="2.83598"/>
<feGaussianBlur stdDeviation="8.50794"/>
<feComposite in2="hardAlpha" operator="out"/>
<feColorMatrix type="matrix" values="0 0 0 0 0.67451 0 0 0 0 0.721569 0 0 0 0 0.792157 0 0 0 0.5 0"/>
<feBlend mode="normal" in2="BackgroundImageFix" result="effect1_dropShadow_87_1032"/>
<feBlend mode="normal" in="SourceGraphic" in2="effect1_dropShadow_87_1032" result="shape"/>
</filter>
<linearGradient id="paint0_linear_87_1032" x1="0" y1="0.636963" x2="102.725" y2="205.213" gradientUnits="userSpaceOnUse">
<stop stop-color="#AACBFA"/>
<stop offset="1" stop-color="#C4DFFB"/>
</linearGradient>
<linearGradient id="paint1_linear_87_1032" x1="173.429" y1="52.3339" x2="212.92" y2="53.3654" gradientUnits="userSpaceOnUse">
<stop stop-color="#C5D2EC"/>
<stop offset="0.9964" stop-color="#F1F7FE"/>
</linearGradient>
<linearGradient id="paint2_linear_87_1032" x1="131.687" y1="94.0734" x2="171.12" y2="95.9024" gradientUnits="userSpaceOnUse">
<stop stop-color="#C5D2EC"/>
<stop offset="0.9964" stop-color="#F1F7FE"/>
</linearGradient>
<linearGradient id="paint3_linear_87_1032" x1="137.235" y1="4.35651" x2="208.679" y2="6.40981" gradientUnits="userSpaceOnUse">
<stop stop-color="#C5D2EC"/>
<stop offset="0.9964" stop-color="#F1F7FE"/>
</linearGradient>
<linearGradient id="paint4_linear_87_1032" x1="49.8075" y1="19.3509" x2="102.463" y2="20.7097" gradientUnits="userSpaceOnUse">
<stop stop-color="#C5D2EC"/>
<stop offset="0.9964" stop-color="#F1F7FE"/>
</linearGradient>
<linearGradient id="paint5_linear_87_1032" x1="58.674" y1="41.975" x2="89.9486" y2="50.9893" gradientUnits="userSpaceOnUse">
<stop stop-color="#C5D2EC"/>
<stop offset="0.9964" stop-color="#F1F7FE"/>
</linearGradient>
<linearGradient id="paint6_linear_87_1032" x1="63.9734" y1="32.1518" x2="86.226" y2="34.8283" gradientUnits="userSpaceOnUse">
<stop stop-color="#C5D2EC"/>
<stop offset="0.9964" stop-color="#F1F7FE"/>
</linearGradient>
<linearGradient id="paint7_linear_87_1032" x1="69.7011" y1="64.6661" x2="122.314" y2="66.6226" gradientUnits="userSpaceOnUse">
<stop stop-color="#C5D2EC"/>
<stop offset="0.9964" stop-color="#F1F7FE"/>
</linearGradient>
<linearGradient id="paint8_linear_87_1032" x1="80.209" y1="94.1151" x2="114.157" y2="99.1995" gradientUnits="userSpaceOnUse">
<stop stop-color="#81A8FB"/>
<stop offset="1" stop-color="#4F84F7"/>
</linearGradient>
<linearGradient id="paint9_linear_87_1032" x1="123.939" y1="95.1755" x2="147.439" y2="97.5387" gradientUnits="userSpaceOnUse">
<stop stop-color="#81A8FB"/>
<stop offset="1" stop-color="#4F84F7"/>
</linearGradient>
<linearGradient id="paint10_linear_87_1032" x1="123.881" y1="62.699" x2="124.021" y2="115.414" gradientUnits="userSpaceOnUse">
<stop stop-color="#FFB52E"/>
<stop offset="1" stop-color="#E69603"/>
</linearGradient>
<clipPath id="clip0_87_1032">
<rect width="239.151" height="147.545" fill="white" transform="translate(0 0.636963) rotate(-0.152608)"/>
</clipPath>
</defs>
</svg>
