<svg width="14" height="21" viewBox="0 0 14 21" fill="none" xmlns="http://www.w3.org/2000/svg">
<path d="M12.75 8.25L9.75 9.75L5.75 6.75L4.75 12.25L8.25 15.25L8.75 19.75M12.75 6.75V19.75M4.75 15.25L2.75 19.75M3.25 6.75C1.75 7.75 0.75 10.25 0.75 10.25L2.75 11.25M6.75 4.75C7.28043 4.75 7.78914 4.53929 8.16421 4.16421C8.53929 3.78914 8.75 3.28043 8.75 2.75C8.75 2.21957 8.53929 1.71086 8.16421 1.33579C7.78914 0.960714 7.28043 0.75 6.75 0.75C6.21957 0.75 5.71086 0.960714 5.33579 1.33579C4.96071 1.71086 4.75 2.21957 4.75 2.75C4.75 3.28043 4.96071 3.78914 5.33579 4.16421C5.71086 4.53929 6.21957 4.75 6.75 4.75Z" stroke="#2F00FF" stroke-width="1.5" stroke-linecap="round" stroke-linejoin="round"/>
</svg>
