<svg width="16" height="16" viewBox="0 0 16 16" fill="none" xmlns="http://www.w3.org/2000/svg">
<path d="M3.43459 1.12109L1.21147 2.97372H5.65772L3.43459 1.12109ZM12.4346 2.12109L10.2115 3.97372H14.6577L12.4346 2.12109ZM7.14797 2.63775L3.74484 5.47369H10.5511L7.14797 2.63775ZM1.71584 3.53619V5.47369H2.86616L5.15334 3.56769V3.53619H1.71584ZM2.43459 3.97369H2.93459V4.53619H2.43459V3.97369ZM10.7158 4.53619V4.87878L11.4346 5.47772V4.97366H11.9346V5.53616H11.5047L11.508 5.53888L12.1048 6.03619H10.7158V6.47369H13.1533V5.25494H13.7158V6.47369H14.1533V4.53619H10.7158ZM4.64256 6.03619V6.66369L5.39553 6.03619H4.64256ZM5.5225 6.03619L8.80688 8.77312L9.65334 8.06769V6.03619H5.5225ZM7.85634 6.47369H8.97306V7.53619H7.85634V6.47369ZM5.45903 6.71556L0.949219 10.4737H9.96891L5.45909 6.71556H5.45903ZM11.648 7.13775L9.24619 9.13922L10.2475 9.97372H15.0511L11.648 7.13778V7.13775ZM10.9225 10.5362L10.9257 10.5389L11.5225 11.0362H9.26472V13.457H11.1533V11.4737H12.7158V13.4571H14.1533V10.5363H10.9225V10.5362ZM2.21584 11.0362V14.8792H6.15334V12.4737H7.71584V14.8793H8.70225V11.0363H2.21584V11.0362ZM3.15334 11.9737H4.71584V13.5362H3.15334V11.9737Z" fill="white"/>
</svg>
